<svg width="268" height="55" viewBox="0 0 268 55" fill="none" xmlns="http://www.w3.org/2000/svg">
<path d="M256.317 1H11.6827C5.78282 1 1 5.47715 1 11V44C1 49.5228 5.78282 54 11.6827 54H256.317C262.217 54 267 49.5228 267 44V11C267 5.47715 262.217 1 256.317 1Z" fill="white" stroke="#D9E1EC"/>
<path d="M61.4006 12.6818H62.2756V16.8068C62.2756 17.1799 62.2017 17.4991 62.054 17.7642C61.9081 18.0294 61.7027 18.232 61.4375 18.3722C61.1723 18.5104 60.8617 18.5795 60.5057 18.5795C60.178 18.5795 59.8835 18.5199 59.6222 18.4006C59.3627 18.2812 59.1572 18.108 59.0057 17.8807C58.8561 17.6515 58.7812 17.3731 58.7812 17.0455H59.6534C59.6534 17.2064 59.6903 17.3456 59.7642 17.4631C59.84 17.5805 59.9432 17.6723 60.0739 17.7386C60.2064 17.803 60.358 17.8352 60.5284 17.8352C60.714 17.8352 60.8712 17.7964 61 17.7188C61.1307 17.6392 61.2301 17.5227 61.2983 17.3693C61.3665 17.2159 61.4006 17.0284 61.4006 16.8068V12.6818ZM65.3232 18.5881C64.9141 18.5881 64.5571 18.4943 64.2521 18.3068C63.9472 18.1193 63.7105 17.857 63.5419 17.5199C63.3733 17.1828 63.2891 16.7888 63.2891 16.3381C63.2891 15.8854 63.3733 15.4896 63.5419 15.1506C63.7105 14.8116 63.9472 14.5483 64.2521 14.3608C64.5571 14.1733 64.9141 14.0795 65.3232 14.0795C65.7322 14.0795 66.0893 14.1733 66.3942 14.3608C66.6991 14.5483 66.9358 14.8116 67.1044 15.1506C67.273 15.4896 67.3572 15.8854 67.3572 16.3381C67.3572 16.7888 67.273 17.1828 67.1044 17.5199C66.9358 17.857 66.6991 18.1193 66.3942 18.3068C66.0893 18.4943 65.7322 18.5881 65.3232 18.5881ZM65.326 17.875C65.5911 17.875 65.8108 17.8049 65.9851 17.6648C66.1593 17.5246 66.2881 17.3381 66.3714 17.1051C66.4567 16.8722 66.4993 16.6155 66.4993 16.3352C66.4993 16.0568 66.4567 15.8011 66.3714 15.5682C66.2881 15.3333 66.1593 15.1449 65.9851 15.0028C65.8108 14.8608 65.5911 14.7898 65.326 14.7898C65.0589 14.7898 64.8374 14.8608 64.6612 15.0028C64.487 15.1449 64.3572 15.3333 64.272 15.5682C64.1887 15.8011 64.147 16.0568 64.147 16.3352C64.147 16.6155 64.1887 16.8722 64.272 17.1051C64.3572 17.3381 64.487 17.5246 64.6612 17.6648C64.8374 17.8049 65.0589 17.875 65.326 17.875ZM68.3054 18.5V14.1364H69.1548V18.5H68.3054ZM68.7344 13.4631C68.5866 13.4631 68.4598 13.4138 68.3537 13.3153C68.2495 13.215 68.1974 13.0956 68.1974 12.9574C68.1974 12.8172 68.2495 12.6979 68.3537 12.5994C68.4598 12.4991 68.5866 12.4489 68.7344 12.4489C68.8821 12.4489 69.008 12.4991 69.1122 12.5994C69.2183 12.6979 69.2713 12.8172 69.2713 12.9574C69.2713 13.0956 69.2183 13.215 69.1122 13.3153C69.008 13.4138 68.8821 13.4631 68.7344 13.4631ZM71.147 15.9091V18.5H70.2976V14.1364H71.1129V14.8466H71.1669C71.2673 14.6155 71.4245 14.4299 71.6385 14.2898C71.8544 14.1496 72.1262 14.0795 72.4538 14.0795C72.7512 14.0795 73.0116 14.142 73.2351 14.267C73.4586 14.3902 73.6319 14.5739 73.755 14.8182C73.8781 15.0625 73.9396 15.3646 73.9396 15.7244V18.5H73.0902V15.8267C73.0902 15.5104 73.0078 15.2633 72.843 15.0852C72.6783 14.9053 72.4519 14.8153 72.1641 14.8153C71.9671 14.8153 71.7919 14.858 71.6385 14.9432C71.487 15.0284 71.3667 15.1534 71.2777 15.3182C71.1906 15.4811 71.147 15.678 71.147 15.9091ZM77.196 18.5V14.1364H78.0455V18.5H77.196ZM77.625 13.4631C77.4773 13.4631 77.3504 13.4138 77.2443 13.3153C77.1402 13.215 77.0881 13.0956 77.0881 12.9574C77.0881 12.8172 77.1402 12.6979 77.2443 12.5994C77.3504 12.4991 77.4773 12.4489 77.625 12.4489C77.7727 12.4489 77.8987 12.4991 78.0028 12.5994C78.1089 12.6979 78.1619 12.8172 78.1619 12.9574C78.1619 13.0956 78.1089 13.215 78.0028 13.3153C77.8987 13.4138 77.7727 13.4631 77.625 13.4631ZM80.0376 15.9091V18.5H79.1882V14.1364H80.0036V14.8466H80.0575C80.1579 14.6155 80.3151 14.4299 80.5291 14.2898C80.745 14.1496 81.0168 14.0795 81.3445 14.0795C81.6418 14.0795 81.9022 14.142 82.1257 14.267C82.3492 14.3902 82.5225 14.5739 82.6456 14.8182C82.7687 15.0625 82.8303 15.3646 82.8303 15.7244V18.5H81.9808V15.8267C81.9808 15.5104 81.8984 15.2633 81.7337 15.0852C81.5689 14.9053 81.3426 14.8153 81.0547 14.8153C80.8577 14.8153 80.6825 14.858 80.5291 14.9432C80.3776 15.0284 80.2573 15.1534 80.1683 15.3182C80.0812 15.4811 80.0376 15.678 80.0376 15.9091Z" fill="#4B587C"/>
<path d="M65.2415 40.5H59.8274V25.2273H65.2862C66.8224 25.2273 68.1449 25.533 69.2536 26.1445C70.3622 26.7511 71.2148 27.6236 71.8114 28.7621C72.413 29.9006 72.7138 31.2628 72.7138 32.8487C72.7138 34.4396 72.413 35.8068 71.8114 36.9503C71.2148 38.0937 70.3572 38.9712 69.2386 39.5827C68.125 40.1942 66.7926 40.5 65.2415 40.5ZM63.0565 37.7333H65.1072C66.0618 37.7333 66.8647 37.5643 67.516 37.2262C68.1722 36.8832 68.6644 36.3537 68.9925 35.6378C69.3256 34.9169 69.4922 33.9872 69.4922 32.8487C69.4922 31.7202 69.3256 30.7979 68.9925 30.082C68.6644 29.3661 68.1747 28.8391 67.5234 28.5011C66.8722 28.163 66.0692 27.994 65.1147 27.994H63.0565V37.7333ZM75.0461 40.5V29.0455H78.2229V40.5H75.0461ZM76.642 27.5689C76.1697 27.5689 75.7645 27.4123 75.4264 27.0991C75.0933 26.7809 74.9268 26.4006 74.9268 25.9581C74.9268 25.5206 75.0933 25.1452 75.4264 24.832C75.7645 24.5138 76.1697 24.3548 76.642 24.3548C77.1143 24.3548 77.517 24.5138 77.8501 24.832C78.1881 25.1452 78.3572 25.5206 78.3572 25.9581C78.3572 26.4006 78.1881 26.7809 77.8501 27.0991C77.517 27.4123 77.1143 27.5689 76.642 27.5689ZM90.2983 32.3118L87.3899 32.4908C87.3402 32.2422 87.2333 32.0185 87.0692 31.8196C86.9052 31.6158 86.6889 31.4542 86.4205 31.3349C86.157 31.2106 85.8413 31.1484 85.4734 31.1484C84.9812 31.1484 84.5661 31.2528 84.228 31.4616C83.8899 31.6655 83.7209 31.9389 83.7209 32.282C83.7209 32.5554 83.8303 32.7866 84.049 32.9755C84.2678 33.1644 84.6431 33.3161 85.1751 33.4304L87.2482 33.848C88.3619 34.0767 89.1921 34.4446 89.739 34.9517C90.2859 35.4588 90.5593 36.125 90.5593 36.9503C90.5593 37.701 90.3381 38.3597 89.8956 38.9265C89.4581 39.4933 88.8565 39.9357 88.0909 40.2539C87.3303 40.5671 86.4528 40.7237 85.4585 40.7237C83.9421 40.7237 82.734 40.408 81.8342 39.7766C80.9393 39.1403 80.4148 38.2752 80.2607 37.1815L83.3853 37.0174C83.4798 37.4798 83.7085 37.8327 84.0714 38.0763C84.4343 38.315 84.8991 38.4343 85.4659 38.4343C86.0227 38.4343 86.4702 38.3274 86.8082 38.1136C87.1513 37.8949 87.3253 37.614 87.3303 37.271C87.3253 36.9826 87.2035 36.7464 86.9648 36.5625C86.7262 36.3736 86.3583 36.2294 85.8612 36.13L83.8775 35.7347C82.7589 35.511 81.9261 35.1232 81.3793 34.5714C80.8374 34.0195 80.5664 33.3161 80.5664 32.4609C80.5664 31.7251 80.7653 31.0913 81.163 30.5593C81.5657 30.0273 82.13 29.6172 82.8558 29.3288C83.5866 29.0405 84.4418 28.8963 85.4212 28.8963C86.8679 28.8963 88.0064 29.2021 88.8366 29.8136C89.6719 30.4251 90.1591 31.2578 90.2983 32.3118ZM97.7352 40.7237C96.5619 40.7237 95.5526 40.4751 94.7075 39.978C93.8673 39.4759 93.221 38.7798 92.7686 37.8899C92.3211 37 92.0974 35.9759 92.0974 34.8175C92.0974 33.6442 92.3236 32.6151 92.776 31.7301C93.2334 30.8402 93.8822 30.1467 94.7224 29.6495C95.5626 29.1474 96.5619 28.8963 97.7203 28.8963C98.7195 28.8963 99.5945 29.0778 100.345 29.4407C101.096 29.8036 101.69 30.3132 102.128 30.9695C102.565 31.6257 102.806 32.3963 102.851 33.2812H99.8531C99.7686 32.7095 99.5448 32.2496 99.1819 31.9016C98.824 31.5487 98.3541 31.3722 97.7725 31.3722C97.2803 31.3722 96.8502 31.5064 96.4823 31.7749C96.1194 32.0384 95.836 32.4237 95.6322 32.9308C95.4284 33.4379 95.3264 34.0518 95.3264 34.7727C95.3264 35.5036 95.4259 36.125 95.6247 36.6371C95.8286 37.1491 96.1144 37.5394 96.4823 37.8079C96.8502 38.0763 97.2803 38.2106 97.7725 38.2106C98.1354 38.2106 98.461 38.136 98.7494 37.9869C99.0427 37.8377 99.2838 37.6214 99.4727 37.3381C99.6666 37.0497 99.7934 36.7042 99.8531 36.3015H102.851C102.801 37.1765 102.563 37.9471 102.135 38.6133C101.712 39.2745 101.128 39.7915 100.383 40.1644C99.6368 40.5373 98.7544 40.7237 97.7352 40.7237ZM110.06 40.7237C108.902 40.7237 107.9 40.4776 107.055 39.9854C106.215 39.4883 105.566 38.7972 105.109 37.9123C104.651 37.0224 104.423 35.9908 104.423 34.8175C104.423 33.6342 104.651 32.6001 105.109 31.7152C105.566 30.8253 106.215 30.1342 107.055 29.642C107.9 29.1449 108.902 28.8963 110.06 28.8963C111.219 28.8963 112.218 29.1449 113.058 29.642C113.903 30.1342 114.555 30.8253 115.012 31.7152C115.469 32.6001 115.698 33.6342 115.698 34.8175C115.698 35.9908 115.469 37.0224 115.012 37.9123C114.555 38.7972 113.903 39.4883 113.058 39.9854C112.218 40.4776 111.219 40.7237 110.06 40.7237ZM110.075 38.2628C110.602 38.2628 111.042 38.1136 111.395 37.8153C111.748 37.5121 112.014 37.0994 112.193 36.5774C112.377 36.0554 112.469 35.4613 112.469 34.7951C112.469 34.1289 112.377 33.5348 112.193 33.0128C112.014 32.4908 111.748 32.0781 111.395 31.7749C111.042 31.4716 110.602 31.32 110.075 31.32C109.543 31.32 109.096 31.4716 108.733 31.7749C108.375 32.0781 108.104 32.4908 107.92 33.0128C107.741 33.5348 107.652 34.1289 107.652 34.7951C107.652 35.4613 107.741 36.0554 107.92 36.5774C108.104 37.0994 108.375 37.5121 108.733 37.8153C109.096 38.1136 109.543 38.2628 110.075 38.2628ZM117.764 40.5V29.0455H120.844V31.044H120.963C121.172 30.3331 121.522 29.7962 122.015 29.4332C122.507 29.0653 123.074 28.8814 123.715 28.8814C123.874 28.8814 124.045 28.8913 124.229 28.9112C124.413 28.9311 124.575 28.9585 124.714 28.9933V31.8121C124.565 31.7674 124.359 31.7276 124.095 31.6928C123.832 31.658 123.591 31.6406 123.372 31.6406C122.904 31.6406 122.487 31.7425 122.119 31.9464C121.756 32.1452 121.468 32.4237 121.254 32.7816C121.045 33.1396 120.941 33.5522 120.941 34.0195V40.5H117.764ZM130.044 40.6864C129.174 40.6864 128.386 40.4627 127.68 40.0153C126.979 39.5629 126.422 38.8991 126.01 38.0241C125.602 37.1442 125.398 36.0653 125.398 34.7876C125.398 33.4751 125.61 32.3839 126.032 31.5138C126.455 30.6388 127.017 29.9851 127.718 29.5526C128.424 29.1151 129.197 28.8963 130.037 28.8963C130.678 28.8963 131.213 29.0057 131.64 29.2244C132.073 29.4382 132.421 29.7067 132.684 30.0298C132.953 30.348 133.157 30.6612 133.296 30.9695H133.393V25.2273H136.562V40.5H133.43V38.6655H133.296C133.147 38.9837 132.935 39.2994 132.662 39.6126C132.393 39.9208 132.043 40.1768 131.61 40.3807C131.183 40.5845 130.661 40.6864 130.044 40.6864ZM131.051 38.1584C131.563 38.1584 131.996 38.0192 132.349 37.7408C132.707 37.4574 132.98 37.0621 133.169 36.555C133.363 36.0479 133.46 35.4538 133.46 34.7727C133.46 34.0916 133.365 33.5 133.176 32.9979C132.987 32.4957 132.714 32.108 132.356 31.8345C131.998 31.5611 131.563 31.4244 131.051 31.4244C130.529 31.4244 130.089 31.5661 129.731 31.8494C129.373 32.1328 129.102 32.5256 128.918 33.0277C128.734 33.5298 128.642 34.1115 128.642 34.7727C128.642 35.4389 128.734 36.0281 128.918 36.5401C129.107 37.0472 129.378 37.445 129.731 37.7333C130.089 38.0167 130.529 38.1584 131.051 38.1584ZM149.21 40.7237C148.036 40.7237 147.027 40.4751 146.182 39.978C145.342 39.4759 144.696 38.7798 144.243 37.8899C143.796 37 143.572 35.9759 143.572 34.8175C143.572 33.6442 143.798 32.6151 144.251 31.7301C144.708 30.8402 145.357 30.1467 146.197 29.6495C147.037 29.1474 148.036 28.8963 149.195 28.8963C150.194 28.8963 151.069 29.0778 151.82 29.4407C152.571 29.8036 153.165 30.3132 153.602 30.9695C154.04 31.6257 154.281 32.3963 154.326 33.2812H151.328C151.243 32.7095 151.019 32.2496 150.657 31.9016C150.299 31.5487 149.829 31.3722 149.247 31.3722C148.755 31.3722 148.325 31.5064 147.957 31.7749C147.594 32.0384 147.311 32.4237 147.107 32.9308C146.903 33.4379 146.801 34.0518 146.801 34.7727C146.801 35.5036 146.9 36.125 147.099 36.6371C147.303 37.1491 147.589 37.5394 147.957 37.8079C148.325 38.0763 148.755 38.2106 149.247 38.2106C149.61 38.2106 149.936 38.136 150.224 37.9869C150.517 37.8377 150.758 37.6214 150.947 37.3381C151.141 37.0497 151.268 36.7042 151.328 36.3015H154.326C154.276 37.1765 154.037 37.9471 153.61 38.6133C153.187 39.2745 152.603 39.7915 151.857 40.1644C151.111 40.5373 150.229 40.7237 149.21 40.7237ZM161.535 40.7237C160.377 40.7237 159.375 40.4776 158.53 39.9854C157.689 39.4883 157.041 38.7972 156.583 37.9123C156.126 37.0224 155.897 35.9908 155.897 34.8175C155.897 33.6342 156.126 32.6001 156.583 31.7152C157.041 30.8253 157.689 30.1342 158.53 29.642C159.375 29.1449 160.377 28.8963 161.535 28.8963C162.693 28.8963 163.693 29.1449 164.533 29.642C165.378 30.1342 166.029 30.8253 166.487 31.7152C166.944 32.6001 167.173 33.6342 167.173 34.8175C167.173 35.9908 166.944 37.0224 166.487 37.9123C166.029 38.7972 165.378 39.4883 164.533 39.9854C163.693 40.4776 162.693 40.7237 161.535 40.7237ZM161.55 38.2628C162.077 38.2628 162.517 38.1136 162.87 37.8153C163.223 37.5121 163.489 37.0994 163.668 36.5774C163.852 36.0554 163.944 35.4613 163.944 34.7951C163.944 34.1289 163.852 33.5348 163.668 33.0128C163.489 32.4908 163.223 32.0781 162.87 31.7749C162.517 31.4716 162.077 31.32 161.55 31.32C161.018 31.32 160.57 31.4716 160.208 31.7749C159.85 32.0781 159.579 32.4908 159.395 33.0128C159.216 33.5348 159.126 34.1289 159.126 34.7951C159.126 35.4613 159.216 36.0554 159.395 36.5774C159.579 37.0994 159.85 37.5121 160.208 37.8153C160.57 38.1136 161.018 38.2628 161.55 38.2628ZM169.238 40.5V29.0455H172.266V31.0664H172.4C172.639 30.3952 173.037 29.8658 173.594 29.478C174.15 29.0902 174.817 28.8963 175.592 28.8963C176.378 28.8963 177.046 29.0927 177.598 29.4854C178.15 29.8732 178.518 30.4002 178.702 31.0664H178.821C179.055 30.4102 179.477 29.8857 180.089 29.4929C180.705 29.0952 181.434 28.8963 182.274 28.8963C183.343 28.8963 184.21 29.2369 184.877 29.918C185.548 30.5941 185.883 31.5536 185.883 32.7965V40.5H182.714V33.4229C182.714 32.7866 182.545 32.3093 182.207 31.9911C181.869 31.6729 181.446 31.5138 180.939 31.5138C180.362 31.5138 179.912 31.6978 179.589 32.0657C179.266 32.4286 179.105 32.9084 179.105 33.505V40.5H176.025V33.3558C176.025 32.794 175.863 32.3466 175.54 32.0135C175.222 31.6804 174.802 31.5138 174.28 31.5138C173.927 31.5138 173.608 31.6033 173.325 31.7823C173.047 31.9563 172.825 32.2024 172.661 32.5206C172.497 32.8338 172.415 33.2017 172.415 33.6243V40.5H169.238ZM188.393 40.5V29.0455H191.42V31.0664H191.555C191.793 30.3952 192.191 29.8658 192.748 29.478C193.305 29.0902 193.971 28.8963 194.746 28.8963C195.532 28.8963 196.201 29.0927 196.752 29.4854C197.304 29.8732 197.672 30.4002 197.856 31.0664H197.975C198.209 30.4102 198.632 29.8857 199.243 29.4929C199.86 29.0952 200.588 28.8963 201.428 28.8963C202.497 28.8963 203.365 29.2369 204.031 29.918C204.702 30.5941 205.038 31.5536 205.038 32.7965V40.5H201.868V33.4229C201.868 32.7866 201.699 32.3093 201.361 31.9911C201.023 31.6729 200.6 31.5138 200.093 31.5138C199.517 31.5138 199.067 31.6978 198.744 32.0657C198.42 32.4286 198.259 32.9084 198.259 33.505V40.5H195.179V33.3558C195.179 32.794 195.017 32.3466 194.694 32.0135C194.376 31.6804 193.956 31.5138 193.434 31.5138C193.081 31.5138 192.763 31.6033 192.479 31.7823C192.201 31.9563 191.98 32.2024 191.816 32.5206C191.652 32.8338 191.57 33.2017 191.57 33.6243V40.5H188.393ZM214.893 35.6229V29.0455H218.069V40.5H215.019V38.4194H214.9C214.642 39.0906 214.211 39.63 213.61 40.0376C213.013 40.4453 212.285 40.6491 211.425 40.6491C210.659 40.6491 209.986 40.4751 209.404 40.1271C208.822 39.7791 208.367 39.2844 208.039 38.6431C207.716 38.0018 207.552 37.2337 207.547 36.3388V29.0455H210.724V35.772C210.729 36.4482 210.91 36.9826 211.268 37.3754C211.626 37.7681 212.106 37.9645 212.708 37.9645C213.09 37.9645 213.448 37.8775 213.781 37.7035C214.115 37.5245 214.383 37.261 214.587 36.913C214.796 36.565 214.898 36.1349 214.893 35.6229ZM223.787 33.8778V40.5H220.611V29.0455H223.638V31.0664H223.772C224.026 30.4002 224.451 29.8732 225.048 29.4854C225.644 29.0927 226.368 28.8963 227.218 28.8963C228.013 28.8963 228.707 29.0703 229.298 29.4183C229.89 29.7663 230.35 30.2635 230.678 30.9098C231.006 31.5511 231.17 32.3168 231.17 33.2067V40.5H227.993V33.7734C227.998 33.0724 227.819 32.5256 227.456 32.1328C227.093 31.7351 226.594 31.5362 225.957 31.5362C225.53 31.5362 225.152 31.6282 224.824 31.8121C224.501 31.9961 224.247 32.2646 224.063 32.6175C223.884 32.9656 223.792 33.3857 223.787 33.8778ZM233.674 40.5V29.0455H236.851V40.5H233.674ZM235.27 27.5689C234.798 27.5689 234.392 27.4123 234.054 27.0991C233.721 26.7809 233.555 26.4006 233.555 25.9581C233.555 25.5206 233.721 25.1452 234.054 24.832C234.392 24.5138 234.798 24.3548 235.27 24.3548C235.742 24.3548 236.145 24.5138 236.478 24.832C236.816 25.1452 236.985 25.5206 236.985 25.9581C236.985 26.4006 236.816 26.7809 236.478 27.0991C236.145 27.4123 235.742 27.5689 235.27 27.5689ZM245.488 29.0455V31.4318H238.59V29.0455H245.488ZM240.156 26.3011H243.333V36.9801C243.333 37.2734 243.378 37.5021 243.467 37.6662C243.557 37.8253 243.681 37.9371 243.84 38.0018C244.004 38.0664 244.193 38.0987 244.407 38.0987C244.556 38.0987 244.705 38.0863 244.854 38.0614C245.004 38.0316 245.118 38.0092 245.198 37.9943L245.697 40.3583C245.538 40.408 245.314 40.4652 245.026 40.5298C244.738 40.5994 244.387 40.6417 243.975 40.6566C243.209 40.6864 242.538 40.5845 241.961 40.3509C241.389 40.1172 240.944 39.7543 240.626 39.2621C240.308 38.7699 240.151 38.1484 240.156 37.3977V26.3011ZM249.519 44.7955C249.116 44.7955 248.739 44.7631 248.386 44.6985C248.038 44.6388 247.749 44.5618 247.521 44.4673L248.236 42.0959C248.609 42.2102 248.945 42.2724 249.243 42.2823C249.546 42.2923 249.807 42.2227 250.026 42.0735C250.25 41.9244 250.431 41.6708 250.571 41.3129L250.757 40.8281L246.648 29.0455H249.989L252.36 37.4574H252.48L254.873 29.0455H258.237L253.785 41.7379C253.571 42.3544 253.28 42.8913 252.912 43.3487C252.549 43.8111 252.089 44.1665 251.533 44.4151C250.976 44.6687 250.305 44.7955 249.519 44.7955Z" fill="#4B587C"/>
<path d="M37.5658 20.1086C35.6885 19.2303 33.6813 18.592 31.5828 18.2285C31.3251 18.6945 31.024 19.3212 30.8164 19.8197C28.5857 19.4842 26.3755 19.4842 24.1857 19.8197C23.9782 19.3212 23.6703 18.6945 23.4102 18.2285C21.3095 18.592 19.3 19.2326 17.4227 20.1133C13.6364 25.835 12.6099 31.4145 13.1231 36.9149C15.6345 38.7903 18.0682 39.9295 20.4609 40.675C21.0517 39.862 21.5786 38.9977 22.0325 38.0867C21.168 37.7583 20.3401 37.3529 19.5577 36.8823C19.7653 36.7285 19.9683 36.5678 20.1644 36.4024C24.9362 38.6342 30.1208 38.6342 34.8355 36.4024C35.0339 36.5678 35.2369 36.7285 35.4422 36.8823C34.6575 37.3552 33.8273 37.7606 32.9628 38.0891C33.4167 38.9977 33.9413 39.8643 34.5344 40.6773C36.9294 39.9318 39.3654 38.7926 41.8767 36.9149C42.4789 30.5386 40.8481 25.0102 37.5658 20.1086ZM22.6826 33.5322C21.2502 33.5322 20.0755 32.195 20.0755 30.5665C20.0755 28.9381 21.2251 27.5985 22.6826 27.5985C24.1401 27.5985 25.3148 28.9357 25.2897 30.5665C25.292 32.195 24.1401 33.5322 22.6826 33.5322ZM32.3173 33.5322C30.8849 33.5322 29.7102 32.195 29.7102 30.5665C29.7102 28.9381 30.8598 27.5985 32.3173 27.5985C33.7748 27.5985 34.9495 28.9357 34.9244 30.5665C34.9244 32.195 33.7748 33.5322 32.3173 33.5322Z" fill="#4B587C"/>
</svg>
