<svg width="229" height="55" viewBox="0 0 229 55" fill="none" xmlns="http://www.w3.org/2000/svg">
<path d="M219.363 1H10.1365C5.09057 1 1 5.47715 1 11V44C1 49.5228 5.09057 54 10.1365 54H219.363C224.409 54 228.5 49.5228 228.5 44V11C228.5 5.47715 224.409 1 219.363 1Z" fill="white" stroke="#D9E1EC"/>
<path d="M62.3125 14.2102C62.2822 13.9413 62.1572 13.733 61.9375 13.5852C61.7178 13.4356 61.4413 13.3608 61.108 13.3608C60.8693 13.3608 60.6629 13.3987 60.4886 13.4744C60.3144 13.5483 60.179 13.6506 60.0824 13.7812C59.9877 13.91 59.9403 14.0568 59.9403 14.2216C59.9403 14.3598 59.9725 14.4792 60.0369 14.5795C60.1032 14.6799 60.1894 14.7642 60.2955 14.8324C60.4034 14.8987 60.5189 14.9545 60.642 15C60.7652 15.0436 60.8835 15.0795 60.9972 15.108L61.5653 15.2557C61.7509 15.3011 61.9413 15.3627 62.1364 15.4403C62.3314 15.518 62.5123 15.6203 62.679 15.7472C62.8456 15.8741 62.9801 16.0312 63.0824 16.2188C63.1866 16.4062 63.2386 16.6307 63.2386 16.892C63.2386 17.2216 63.1534 17.5142 62.983 17.7699C62.8144 18.0256 62.5691 18.2273 62.2472 18.375C61.9271 18.5227 61.5398 18.5966 61.0852 18.5966C60.6496 18.5966 60.2727 18.5275 59.9545 18.3892C59.6364 18.2509 59.3873 18.0549 59.2074 17.8011C59.0275 17.5455 58.928 17.2424 58.9091 16.892H59.7898C59.8068 17.1023 59.875 17.2775 59.9943 17.4176C60.1155 17.5559 60.2699 17.6591 60.4574 17.7273C60.6468 17.7936 60.8542 17.8267 61.0795 17.8267C61.3277 17.8267 61.5483 17.7879 61.7415 17.7102C61.9366 17.6307 62.09 17.5208 62.2017 17.3807C62.3134 17.2386 62.3693 17.0729 62.3693 16.8835C62.3693 16.7112 62.3201 16.5701 62.2216 16.4602C62.125 16.3504 61.9934 16.2595 61.8267 16.1875C61.6619 16.1155 61.4754 16.0521 61.267 15.9972L60.5795 15.8097C60.1136 15.6828 59.7443 15.4962 59.4716 15.25C59.2008 15.0038 59.0653 14.678 59.0653 14.2727C59.0653 13.9375 59.1563 13.6449 59.3381 13.3949C59.5199 13.1449 59.7661 12.9508 60.0767 12.8125C60.3873 12.6723 60.7377 12.6023 61.1278 12.6023C61.5218 12.6023 61.8693 12.6714 62.1705 12.8097C62.4735 12.9479 62.7121 13.1383 62.8864 13.3807C63.0606 13.6212 63.1515 13.8977 63.1591 14.2102H62.3125ZM66.2564 14.1364V14.8182H63.8729V14.1364H66.2564ZM64.5121 13.0909H65.3615V17.2188C65.3615 17.3835 65.3861 17.5076 65.4354 17.5909C65.4846 17.6723 65.5481 17.7282 65.6257 17.7585C65.7053 17.7869 65.7914 17.8011 65.8842 17.8011C65.9524 17.8011 66.0121 17.7964 66.0632 17.7869C66.1143 17.7775 66.1541 17.7699 66.1825 17.7642L66.3359 18.4659C66.2867 18.4848 66.2166 18.5038 66.1257 18.5227C66.0348 18.5436 65.9212 18.5549 65.7848 18.5568C65.5613 18.5606 65.353 18.5208 65.1598 18.4375C64.9666 18.3542 64.8104 18.2254 64.6911 18.0511C64.5717 17.8769 64.5121 17.6581 64.5121 17.3949V13.0909ZM68.4659 18.5966C68.1894 18.5966 67.9394 18.5455 67.7159 18.4432C67.4924 18.339 67.3153 18.1884 67.1847 17.9915C67.0559 17.7945 66.9915 17.553 66.9915 17.267C66.9915 17.0208 67.0388 16.8182 67.1335 16.6591C67.2282 16.5 67.3561 16.3741 67.517 16.2812C67.678 16.1884 67.858 16.1184 68.0568 16.071C68.2557 16.0237 68.4583 15.9877 68.6648 15.9631C68.9261 15.9328 69.1383 15.9081 69.3011 15.8892C69.464 15.8684 69.5824 15.8352 69.6562 15.7898C69.7301 15.7443 69.767 15.6705 69.767 15.5682V15.5483C69.767 15.3002 69.697 15.108 69.5568 14.9716C69.4186 14.8352 69.2121 14.767 68.9375 14.767C68.6515 14.767 68.4261 14.8305 68.2614 14.9574C68.0985 15.0824 67.9858 15.2216 67.9233 15.375L67.125 15.1932C67.2197 14.928 67.358 14.714 67.5398 14.5511C67.7235 14.3864 67.9347 14.267 68.1733 14.1932C68.4119 14.1174 68.6629 14.0795 68.9261 14.0795C69.1004 14.0795 69.285 14.1004 69.4801 14.142C69.6771 14.1818 69.8608 14.2557 70.0312 14.3636C70.2036 14.4716 70.3447 14.6259 70.4545 14.8267C70.5644 15.0256 70.6193 15.2841 70.6193 15.6023V18.5H69.7898V17.9034H69.7557C69.7008 18.0133 69.6184 18.1212 69.5085 18.2273C69.3987 18.3333 69.2576 18.4214 69.0852 18.4915C68.9129 18.5616 68.7064 18.5966 68.4659 18.5966ZM68.6506 17.9148C68.8854 17.9148 69.0862 17.8684 69.2528 17.7756C69.4214 17.6828 69.5492 17.5616 69.6364 17.4119C69.7254 17.2604 69.7699 17.0985 69.7699 16.9261V16.3636C69.7396 16.3939 69.6809 16.4223 69.5938 16.4489C69.5085 16.4735 69.411 16.4953 69.3011 16.5142C69.1913 16.5312 69.0843 16.5473 68.9801 16.5625C68.8759 16.5758 68.7888 16.5871 68.7188 16.5966C68.554 16.6174 68.4034 16.6525 68.267 16.7017C68.1326 16.7509 68.0246 16.822 67.9432 16.9148C67.8636 17.0057 67.8239 17.1269 67.8239 17.2784C67.8239 17.4886 67.9015 17.6477 68.0568 17.7557C68.2121 17.8617 68.41 17.9148 68.6506 17.9148ZM71.7507 18.5V14.1364H72.5717V14.8295H72.6172C72.6967 14.5947 72.8369 14.41 73.0376 14.2756C73.2403 14.1392 73.4695 14.071 73.7251 14.071C73.7782 14.071 73.8407 14.0729 73.9126 14.0767C73.9865 14.0805 74.0443 14.0852 74.0859 14.0909V14.9034C74.0518 14.8939 73.9912 14.8835 73.9041 14.8722C73.817 14.8589 73.7299 14.8523 73.6428 14.8523C73.442 14.8523 73.263 14.8949 73.1058 14.9801C72.9505 15.0634 72.8274 15.1799 72.7365 15.3295C72.6456 15.4773 72.6001 15.6458 72.6001 15.8352V18.5H71.7507ZM77.1158 14.1364V14.8182H74.7322V14.1364H77.1158ZM75.3714 13.0909H76.2209V17.2188C76.2209 17.3835 76.2455 17.5076 76.2947 17.5909C76.344 17.6723 76.4074 17.7282 76.4851 17.7585C76.5646 17.7869 76.6508 17.8011 76.7436 17.8011C76.8118 17.8011 76.8714 17.7964 76.9226 17.7869C76.9737 17.7775 77.0135 17.7699 77.0419 17.7642L77.1953 18.4659C77.1461 18.4848 77.076 18.5038 76.9851 18.5227C76.8942 18.5436 76.7805 18.5549 76.6442 18.5568C76.4207 18.5606 76.2124 18.5208 76.0192 18.4375C75.826 18.3542 75.6697 18.2254 75.5504 18.0511C75.4311 17.8769 75.3714 17.6581 75.3714 17.3949V13.0909ZM82.0107 18.5881C81.5883 18.5881 81.2247 18.4924 80.9197 18.3011C80.6167 18.108 80.3838 17.8419 80.2209 17.5028C80.058 17.1638 79.9766 16.7756 79.9766 16.3381C79.9766 15.8949 80.0599 15.5038 80.2266 15.1648C80.3932 14.8239 80.6281 14.5578 80.9311 14.3665C81.2341 14.1752 81.5911 14.0795 82.0021 14.0795C82.3336 14.0795 82.629 14.1411 82.8885 14.2642C83.148 14.3854 83.3572 14.5559 83.5163 14.7756C83.6773 14.9953 83.773 15.2519 83.8033 15.5455H82.9766C82.9311 15.3409 82.8269 15.1648 82.6641 15.017C82.5031 14.8693 82.2872 14.7955 82.0163 14.7955C81.7796 14.7955 81.5722 14.858 81.3942 14.983C81.218 15.1061 81.0807 15.2822 80.9822 15.5114C80.8838 15.7386 80.8345 16.0076 80.8345 16.3182C80.8345 16.6364 80.8828 16.911 80.9794 17.142C81.076 17.3731 81.2124 17.5521 81.3885 17.679C81.5665 17.8059 81.7758 17.8693 82.0163 17.8693C82.1773 17.8693 82.3232 17.84 82.4538 17.7812C82.5864 17.7206 82.6972 17.6345 82.7862 17.5227C82.8771 17.411 82.9406 17.2765 82.9766 17.1193H83.8033C83.773 17.4015 83.6811 17.6534 83.5277 17.875C83.3743 18.0966 83.1688 18.2708 82.9112 18.3977C82.6555 18.5246 82.3554 18.5881 82.0107 18.5881ZM86.5497 18.5881C86.1406 18.5881 85.7836 18.4943 85.4787 18.3068C85.1738 18.1193 84.937 17.857 84.7685 17.5199C84.5999 17.1828 84.5156 16.7888 84.5156 16.3381C84.5156 15.8854 84.5999 15.4896 84.7685 15.1506C84.937 14.8116 85.1738 14.5483 85.4787 14.3608C85.7836 14.1733 86.1406 14.0795 86.5497 14.0795C86.9588 14.0795 87.3158 14.1733 87.6207 14.3608C87.9257 14.5483 88.1624 14.8116 88.331 15.1506C88.4995 15.4896 88.5838 15.8854 88.5838 16.3381C88.5838 16.7888 88.4995 17.1828 88.331 17.5199C88.1624 17.857 87.9257 18.1193 87.6207 18.3068C87.3158 18.4943 86.9588 18.5881 86.5497 18.5881ZM86.5526 17.875C86.8177 17.875 87.0374 17.8049 87.2116 17.6648C87.3859 17.5246 87.5147 17.3381 87.598 17.1051C87.6832 16.8722 87.7259 16.6155 87.7259 16.3352C87.7259 16.0568 87.6832 15.8011 87.598 15.5682C87.5147 15.3333 87.3859 15.1449 87.2116 15.0028C87.0374 14.8608 86.8177 14.7898 86.5526 14.7898C86.2855 14.7898 86.0639 14.8608 85.8878 15.0028C85.7135 15.1449 85.5838 15.3333 85.4986 15.5682C85.4152 15.8011 85.3736 16.0568 85.3736 16.3352C85.3736 16.6155 85.4152 16.8722 85.4986 17.1051C85.5838 17.3381 85.7135 17.5246 85.8878 17.6648C86.0639 17.8049 86.2855 17.875 86.5526 17.875ZM90.3814 15.9091V18.5H89.532V14.1364H90.3473V14.8466H90.4013C90.5017 14.6155 90.6589 14.4299 90.8729 14.2898C91.0888 14.1496 91.3606 14.0795 91.6882 14.0795C91.9856 14.0795 92.246 14.142 92.4695 14.267C92.6929 14.3902 92.8662 14.5739 92.9893 14.8182C93.1125 15.0625 93.174 15.3646 93.174 15.7244V18.5H92.3246V15.8267C92.3246 15.5104 92.2422 15.2633 92.0774 15.0852C91.9126 14.9053 91.6863 14.8153 91.3984 14.8153C91.2015 14.8153 91.0263 14.858 90.8729 14.9432C90.7214 15.0284 90.6011 15.1534 90.5121 15.3182C90.425 15.4811 90.3814 15.678 90.3814 15.9091ZM96.3501 14.1364V14.8182H93.9666V14.1364H96.3501ZM94.6058 13.0909H95.4553V17.2188C95.4553 17.3835 95.4799 17.5076 95.5291 17.5909C95.5784 17.6723 95.6418 17.7282 95.7195 17.7585C95.799 17.7869 95.8852 17.8011 95.978 17.8011C96.0462 17.8011 96.1058 17.7964 96.157 17.7869C96.2081 17.7775 96.2479 17.7699 96.2763 17.7642L96.4297 18.4659C96.3804 18.4848 96.3104 18.5038 96.2195 18.5227C96.1286 18.5436 96.0149 18.5549 95.8786 18.5568C95.6551 18.5606 95.4467 18.5208 95.2536 18.4375C95.0604 18.3542 94.9041 18.2254 94.7848 18.0511C94.6655 17.8769 94.6058 17.6581 94.6058 17.3949V13.0909ZM97.2898 18.5V14.1364H98.1108V14.8295H98.1562C98.2358 14.5947 98.3759 14.41 98.5767 14.2756C98.7794 14.1392 99.0085 14.071 99.2642 14.071C99.3172 14.071 99.3797 14.0729 99.4517 14.0767C99.5256 14.0805 99.5833 14.0852 99.625 14.0909V14.9034C99.5909 14.8939 99.5303 14.8835 99.4432 14.8722C99.3561 14.8589 99.2689 14.8523 99.1818 14.8523C98.9811 14.8523 98.8021 14.8949 98.6449 14.9801C98.4896 15.0634 98.3665 15.1799 98.2756 15.3295C98.1847 15.4773 98.1392 15.6458 98.1392 15.8352V18.5H97.2898ZM100.36 18.5V14.1364H101.21V18.5H100.36ZM100.789 13.4631C100.641 13.4631 100.514 13.4138 100.408 13.3153C100.304 13.215 100.252 13.0956 100.252 12.9574C100.252 12.8172 100.304 12.6979 100.408 12.5994C100.514 12.4991 100.641 12.4489 100.789 12.4489C100.937 12.4489 101.063 12.4991 101.167 12.5994C101.273 12.6979 101.326 12.8172 101.326 12.9574C101.326 13.0956 101.273 13.215 101.167 13.3153C101.063 13.4138 100.937 13.4631 100.789 13.4631ZM102.42 18.5V12.6818H103.27V14.8438H103.321C103.37 14.7528 103.441 14.6477 103.534 14.5284C103.627 14.4091 103.756 14.3049 103.92 14.2159C104.085 14.125 104.303 14.0795 104.574 14.0795C104.926 14.0795 105.241 14.1686 105.517 14.3466C105.794 14.5246 106.01 14.7812 106.168 15.1165C106.327 15.4517 106.406 15.8551 106.406 16.3267C106.406 16.7983 106.328 17.2027 106.17 17.5398C106.013 17.875 105.797 18.1335 105.523 18.3153C105.248 18.4953 104.935 18.5852 104.582 18.5852C104.317 18.5852 104.1 18.5407 103.932 18.4517C103.765 18.3627 103.634 18.2585 103.54 18.1392C103.445 18.0199 103.372 17.9138 103.321 17.821H103.25V18.5H102.42ZM103.253 16.3182C103.253 16.625 103.297 16.8939 103.386 17.125C103.475 17.3561 103.604 17.5369 103.773 17.6676C103.941 17.7964 104.148 17.8608 104.392 17.8608C104.646 17.8608 104.858 17.7936 105.028 17.6591C105.199 17.5227 105.328 17.3381 105.415 17.1051C105.504 16.8722 105.548 16.6098 105.548 16.3182C105.548 16.0303 105.505 15.7718 105.418 15.5426C105.332 15.3134 105.204 15.1326 105.031 15C104.861 14.8674 104.648 14.8011 104.392 14.8011C104.146 14.8011 103.938 14.8646 103.767 14.9915C103.598 15.1184 103.471 15.2955 103.384 15.5227C103.296 15.75 103.253 16.0152 103.253 16.3182ZM110.124 16.6903V14.1364H110.977V18.5H110.141V17.7443H110.096C109.996 17.9773 109.835 18.1714 109.613 18.3267C109.393 18.4801 109.12 18.5568 108.792 18.5568C108.512 18.5568 108.263 18.4953 108.048 18.3722C107.834 18.2472 107.665 18.0625 107.542 17.8182C107.421 17.5739 107.36 17.2718 107.36 16.9119V14.1364H108.21V16.8097C108.21 17.107 108.292 17.3437 108.457 17.5199C108.621 17.696 108.835 17.7841 109.099 17.7841C109.258 17.7841 109.416 17.7443 109.573 17.6648C109.732 17.5852 109.864 17.465 109.968 17.304C110.074 17.143 110.126 16.9384 110.124 16.6903ZM114.155 14.1364V14.8182H111.771V14.1364H114.155ZM112.411 13.0909H113.26V17.2188C113.26 17.3835 113.285 17.5076 113.334 17.5909C113.383 17.6723 113.446 17.7282 113.524 17.7585C113.604 17.7869 113.69 17.8011 113.783 17.8011C113.851 17.8011 113.911 17.7964 113.962 17.7869C114.013 17.7775 114.053 17.7699 114.081 17.7642L114.234 18.4659C114.185 18.4848 114.115 18.5038 114.024 18.5227C113.933 18.5436 113.82 18.5549 113.683 18.5568C113.46 18.5606 113.251 18.5208 113.058 18.4375C112.865 18.3542 112.709 18.2254 112.589 18.0511C112.47 17.8769 112.411 17.6581 112.411 17.3949V13.0909ZM115.094 18.5V14.1364H115.944V18.5H115.094ZM115.523 13.4631C115.376 13.4631 115.249 13.4138 115.143 13.3153C115.039 13.215 114.987 13.0956 114.987 12.9574C114.987 12.8172 115.039 12.6979 115.143 12.5994C115.249 12.4991 115.376 12.4489 115.523 12.4489C115.671 12.4489 115.797 12.4991 115.901 12.5994C116.007 12.6979 116.06 12.8172 116.06 12.9574C116.06 13.0956 116.007 13.215 115.901 13.3153C115.797 13.4138 115.671 13.4631 115.523 13.4631ZM117.936 15.9091V18.5H117.087V14.1364H117.902V14.8466H117.956C118.056 14.6155 118.214 14.4299 118.428 14.2898C118.643 14.1496 118.915 14.0795 119.243 14.0795C119.54 14.0795 119.801 14.142 120.024 14.267C120.248 14.3902 120.421 14.5739 120.544 14.8182C120.667 15.0625 120.729 15.3646 120.729 15.7244V18.5H119.879V15.8267C119.879 15.5104 119.797 15.2633 119.632 15.0852C119.467 14.9053 119.241 14.8153 118.953 14.8153C118.756 14.8153 118.581 14.858 118.428 14.9432C118.276 15.0284 118.156 15.1534 118.067 15.3182C117.98 15.4811 117.936 15.678 117.936 15.9091ZM123.697 20.2273C123.351 20.2273 123.053 20.1818 122.803 20.0909C122.554 20 122.352 19.8797 122.195 19.7301C122.037 19.5805 121.92 19.4167 121.842 19.2386L122.572 18.9375C122.624 19.0208 122.692 19.1089 122.777 19.2017C122.864 19.2964 122.982 19.3769 123.129 19.4432C123.279 19.5095 123.471 19.5426 123.706 19.5426C124.028 19.5426 124.294 19.464 124.504 19.3068C124.714 19.1515 124.82 18.9034 124.82 18.5625V17.7045H124.766C124.714 17.7973 124.641 17.9006 124.544 18.0142C124.449 18.1278 124.319 18.2263 124.152 18.3097C123.985 18.393 123.768 18.4347 123.501 18.4347C123.157 18.4347 122.846 18.3542 122.57 18.1932C122.295 18.0303 122.077 17.7907 121.916 17.4744C121.757 17.1562 121.678 16.7652 121.678 16.3011C121.678 15.8371 121.756 15.4394 121.913 15.108C122.072 14.7765 122.29 14.5227 122.567 14.3466C122.843 14.1686 123.157 14.0795 123.507 14.0795C123.778 14.0795 123.997 14.125 124.163 14.2159C124.33 14.3049 124.46 14.4091 124.553 14.5284C124.647 14.6477 124.72 14.7528 124.771 14.8438H124.834V14.1364H125.666V18.5966C125.666 18.9716 125.579 19.2794 125.405 19.5199C125.231 19.7604 124.995 19.9384 124.697 20.054C124.402 20.1695 124.069 20.2273 123.697 20.2273ZM123.689 17.7301C123.933 17.7301 124.14 17.6733 124.308 17.5597C124.479 17.4441 124.607 17.2794 124.695 17.0653C124.784 16.8494 124.828 16.5909 124.828 16.2898C124.828 15.9962 124.785 15.7377 124.697 15.5142C124.61 15.2907 124.482 15.1165 124.314 14.9915C124.145 14.8646 123.937 14.8011 123.689 14.8011C123.433 14.8011 123.22 14.8674 123.05 15C122.879 15.1307 122.75 15.3087 122.663 15.5341C122.578 15.7595 122.536 16.0114 122.536 16.2898C122.536 16.5758 122.579 16.8267 122.666 17.0426C122.753 17.2585 122.882 17.4271 123.053 17.5483C123.225 17.6695 123.437 17.7301 123.689 17.7301Z" fill="#4B587C"/>
<path d="M68.1126 29.6197C68.0529 29.0181 67.7969 28.5508 67.3445 28.2177C66.892 27.8846 66.2781 27.718 65.5025 27.718C64.9755 27.718 64.5305 27.7926 64.1676 27.9418C63.8047 28.0859 63.5263 28.2873 63.3324 28.5458C63.1435 28.8043 63.049 29.0977 63.049 29.4258C63.0391 29.6992 63.0962 29.9379 63.2205 30.1417C63.3498 30.3455 63.5263 30.522 63.75 30.6712C63.9737 30.8153 64.2322 30.9421 64.5256 31.0515C64.8189 31.1559 65.1321 31.2454 65.4652 31.32L66.8374 31.6481C67.5036 31.7972 68.1151 31.9961 68.6719 32.2447C69.2287 32.4933 69.7109 32.799 70.1186 33.1619C70.5263 33.5249 70.842 33.9524 71.0657 34.4446C71.2944 34.9368 71.4112 35.5011 71.4162 36.1374C71.4112 37.0721 71.1726 37.8825 70.7003 38.5685C70.233 39.2496 69.5568 39.7791 68.6719 40.157C67.7919 40.5298 66.7305 40.7163 65.4876 40.7163C64.2546 40.7163 63.1808 40.5273 62.266 40.1495C61.3562 39.7717 60.6452 39.2124 60.1332 38.4716C59.6261 37.7259 59.3601 36.8036 59.3352 35.7049H62.4599C62.4947 36.217 62.6413 36.6445 62.8999 36.9876C63.1634 37.3256 63.5138 37.5817 63.9513 37.7557C64.3938 37.9247 64.8935 38.0092 65.4503 38.0092C65.9972 38.0092 66.4719 37.9297 66.8746 37.7706C67.2823 37.6115 67.598 37.3903 67.8217 37.1069C68.0455 36.8235 68.1573 36.4979 68.1573 36.13C68.1573 35.7869 68.0554 35.4986 67.8516 35.2649C67.6527 35.0312 67.3594 34.8324 66.9716 34.6683C66.5888 34.5043 66.119 34.3551 65.5621 34.2209L63.8991 33.8033C62.6115 33.4901 61.5948 33.0004 60.8491 32.3342C60.1033 31.668 59.733 30.7706 59.7379 29.642C59.733 28.7173 59.979 27.9094 60.4762 27.2184C60.9783 26.5273 61.6669 25.9879 62.5419 25.6001C63.4169 25.2124 64.4112 25.0185 65.5249 25.0185C66.6584 25.0185 67.6477 25.2124 68.4929 25.6001C69.343 25.9879 70.0043 26.5273 70.4766 27.2184C70.9489 27.9094 71.1925 28.7099 71.2074 29.6197H68.1126ZM79.6212 29.0455V31.4318H72.7231V29.0455H79.6212ZM74.2892 26.3011H77.466V36.9801C77.466 37.2734 77.5107 37.5021 77.6002 37.6662C77.6897 37.8253 77.814 37.9371 77.9731 38.0018C78.1372 38.0664 78.3261 38.0987 78.5399 38.0987C78.689 38.0987 78.8382 38.0863 78.9873 38.0614C79.1365 38.0316 79.2508 38.0092 79.3303 37.9943L79.83 40.3583C79.6709 40.408 79.4472 40.4652 79.1588 40.5298C78.8705 40.5994 78.52 40.6417 78.1073 40.6566C77.3417 40.6864 76.6705 40.5845 76.0938 40.3509C75.5221 40.1172 75.0771 39.7543 74.759 39.2621C74.4408 38.7699 74.2842 38.1484 74.2892 37.3977V26.3011ZM84.9569 40.7163C84.2261 40.7163 83.5748 40.5895 83.0031 40.3359C82.4314 40.0774 81.979 39.6971 81.6459 39.195C81.3177 38.6879 81.1537 38.0565 81.1537 37.3008C81.1537 36.6644 81.2705 36.13 81.5042 35.6974C81.7378 35.2649 82.056 34.9169 82.4587 34.6534C82.8614 34.3899 83.3188 34.1911 83.8309 34.0568C84.3479 33.9226 84.8898 33.8281 85.4566 33.7734C86.1228 33.7038 86.6597 33.6392 87.0674 33.5795C87.4751 33.5149 87.7709 33.4205 87.9548 33.2962C88.1388 33.1719 88.2307 32.9879 88.2307 32.7443V32.6996C88.2307 32.2273 88.0816 31.8619 87.7833 31.6033C87.49 31.3448 87.0724 31.2156 86.5305 31.2156C85.9587 31.2156 85.5038 31.3423 85.1657 31.5959C84.8277 31.8445 84.604 32.1577 84.4946 32.5355L81.5564 32.2969C81.7055 31.6009 81.9988 30.9993 82.4363 30.4922C82.8738 29.9801 83.4381 29.5874 84.1292 29.3139C84.8252 29.0355 85.6306 28.8963 86.5454 28.8963C87.1817 28.8963 87.7907 28.9709 88.3724 29.12C88.9591 29.2692 89.4786 29.5004 89.931 29.8136C90.3884 30.1268 90.7488 30.5295 91.0123 31.0217C91.2758 31.5089 91.4076 32.093 91.4076 32.7741V40.5H88.3948V38.9116H88.3053C88.1214 39.2695 87.8753 39.5852 87.567 39.8587C87.2588 40.1271 86.8884 40.3384 86.4559 40.4925C86.0233 40.6417 85.5237 40.7163 84.9569 40.7163ZM85.8667 38.5238C86.3341 38.5238 86.7467 38.4318 87.1047 38.2479C87.4626 38.0589 87.7435 37.8054 87.9474 37.4872C88.1512 37.169 88.2531 36.8086 88.2531 36.4059V35.1903C88.1537 35.255 88.017 35.3146 87.843 35.3693C87.6739 35.419 87.4825 35.4663 87.2687 35.511C87.055 35.5508 86.8412 35.5881 86.6274 35.6229C86.4136 35.6527 86.2197 35.68 86.0457 35.7049C85.6729 35.7596 85.3472 35.8466 85.0688 35.9659C84.7904 36.0852 84.5741 36.2468 84.42 36.4506C84.2659 36.6495 84.1888 36.8981 84.1888 37.1964C84.1888 37.6289 84.3454 37.9595 84.6586 38.1882C84.9768 38.4119 85.3795 38.5238 85.8667 38.5238ZM93.8722 40.5V29.0455H96.9521V31.044H97.0715C97.2803 30.3331 97.6308 29.7962 98.123 29.4332C98.6151 29.0653 99.1819 28.8814 99.8232 28.8814C99.9823 28.8814 100.154 28.8913 100.338 28.9112C100.522 28.9311 100.683 28.9585 100.823 28.9933V31.8121C100.673 31.7674 100.467 31.7276 100.204 31.6928C99.9401 31.658 99.699 31.6406 99.4802 31.6406C99.0129 31.6406 98.5953 31.7425 98.2274 31.9464C97.8644 32.1452 97.5761 32.4237 97.3623 32.7816C97.1535 33.1396 97.0491 33.5522 97.0491 34.0195V40.5H93.8722ZM112.501 40.7237C111.342 40.7237 110.341 40.4776 109.495 39.9854C108.655 39.4883 108.006 38.7972 107.549 37.9123C107.092 37.0224 106.863 35.9908 106.863 34.8175C106.863 33.6342 107.092 32.6001 107.549 31.7152C108.006 30.8253 108.655 30.1342 109.495 29.642C110.341 29.1449 111.342 28.8963 112.501 28.8963C113.659 28.8963 114.658 29.1449 115.499 29.642C116.344 30.1342 116.995 30.8253 117.453 31.7152C117.91 32.6001 118.139 33.6342 118.139 34.8175C118.139 35.9908 117.91 37.0224 117.453 37.9123C116.995 38.7972 116.344 39.4883 115.499 39.9854C114.658 40.4776 113.659 40.7237 112.501 40.7237ZM112.516 38.2628C113.043 38.2628 113.483 38.1136 113.836 37.8153C114.189 37.5121 114.455 37.0994 114.634 36.5774C114.818 36.0554 114.91 35.4613 114.91 34.7951C114.91 34.1289 114.818 33.5348 114.634 33.0128C114.455 32.4908 114.189 32.0781 113.836 31.7749C113.483 31.4716 113.043 31.32 112.516 31.32C111.984 31.32 111.536 31.4716 111.173 31.7749C110.815 32.0781 110.544 32.4908 110.361 33.0128C110.182 33.5348 110.092 34.1289 110.092 34.7951C110.092 35.4613 110.182 36.0554 110.361 36.5774C110.544 37.0994 110.815 37.5121 111.173 37.8153C111.536 38.1136 111.984 38.2628 112.516 38.2628ZM123.381 33.8778V40.5H120.204V29.0455H123.232V31.0664H123.366C123.62 30.4002 124.045 29.8732 124.641 29.4854C125.238 29.0927 125.961 28.8963 126.812 28.8963C127.607 28.8963 128.301 29.0703 128.892 29.4183C129.484 29.7663 129.944 30.2635 130.272 30.9098C130.6 31.5511 130.764 32.3168 130.764 33.2067V40.5H127.587V33.7734C127.592 33.0724 127.413 32.5256 127.05 32.1328C126.687 31.7351 126.188 31.5362 125.551 31.5362C125.124 31.5362 124.746 31.6282 124.418 31.8121C124.095 31.9961 123.841 32.2646 123.657 32.6175C123.478 32.9656 123.386 33.3857 123.381 33.8778ZM148.315 30.1641C148.21 29.8011 148.064 29.4805 147.875 29.2021C147.686 28.9187 147.455 28.68 147.181 28.4862C146.913 28.2873 146.605 28.1357 146.257 28.0312C145.914 27.9268 145.533 27.8746 145.116 27.8746C144.335 27.8746 143.649 28.0685 143.057 28.4563C142.471 28.8441 142.013 29.4084 141.685 30.1491C141.357 30.8849 141.193 31.7848 141.193 32.8487C141.193 33.9126 141.355 34.8175 141.678 35.5632C142.001 36.3089 142.458 36.8782 143.05 37.271C143.642 37.6587 144.34 37.8526 145.146 37.8526C145.876 37.8526 146.5 37.7234 147.017 37.4648C147.539 37.2013 147.937 36.831 148.21 36.3537C148.489 35.8764 148.628 35.3121 148.628 34.6609L149.284 34.7578H145.347V32.3267H151.738V34.2507C151.738 35.593 151.454 36.7464 150.888 37.7109C150.321 38.6705 149.54 39.4112 148.546 39.9332C147.552 40.4503 146.413 40.7088 145.131 40.7088C143.699 40.7088 142.441 40.3931 141.357 39.7617C140.273 39.1254 139.428 38.223 138.822 37.0547C138.22 35.8814 137.919 34.4893 137.919 32.8786C137.919 31.6406 138.098 30.5369 138.456 29.5675C138.819 28.593 139.326 27.7678 139.978 27.0916C140.629 26.4155 141.387 25.9009 142.252 25.5479C143.117 25.195 144.054 25.0185 145.063 25.0185C145.929 25.0185 146.734 25.1452 147.48 25.3988C148.225 25.6474 148.887 26.0004 149.463 26.4577C150.045 26.9151 150.52 27.4595 150.888 28.0909C151.256 28.7173 151.492 29.4084 151.596 30.1641H148.315ZM154.821 40.5V29.0455H157.998V40.5H154.821ZM156.417 27.5689C155.945 27.5689 155.54 27.4123 155.202 27.0991C154.869 26.7809 154.702 26.4006 154.702 25.9581C154.702 25.5206 154.869 25.1452 155.202 24.832C155.54 24.5138 155.945 24.3548 156.417 24.3548C156.89 24.3548 157.292 24.5138 157.625 24.832C157.964 25.1452 158.133 25.5206 158.133 25.9581C158.133 26.4006 157.964 26.7809 157.625 27.0991C157.292 27.4123 156.89 27.5689 156.417 27.5689ZM166.636 29.0455V31.4318H159.738V29.0455H166.636ZM161.304 26.3011H164.481V36.9801C164.481 37.2734 164.525 37.5021 164.615 37.6662C164.704 37.8253 164.829 37.9371 164.988 38.0018C165.152 38.0664 165.341 38.0987 165.555 38.0987C165.704 38.0987 165.853 38.0863 166.002 38.0614C166.151 38.0316 166.265 38.0092 166.345 37.9943L166.845 40.3583C166.686 40.408 166.462 40.4652 166.173 40.5298C165.885 40.5994 165.535 40.6417 165.122 40.6566C164.356 40.6864 163.685 40.5845 163.108 40.3509C162.537 40.1172 162.092 39.7543 161.774 39.2621C161.455 38.7699 161.299 38.1484 161.304 37.3977V26.3011ZM172.128 33.8778V40.5H168.951V25.2273H172.039V31.0664H172.173C172.431 30.3903 172.849 29.8608 173.426 29.478C174.002 29.0902 174.726 28.8963 175.596 28.8963C176.391 28.8963 177.085 29.0703 177.676 29.4183C178.273 29.7614 178.735 30.256 179.064 30.9023C179.397 31.5437 179.561 32.3118 179.556 33.2067V40.5H176.379V33.7734C176.384 33.0675 176.205 32.5181 175.842 32.1254C175.484 31.7326 174.982 31.5362 174.336 31.5362C173.903 31.5362 173.52 31.6282 173.187 31.8121C172.859 31.9961 172.6 32.2646 172.412 32.6175C172.228 32.9656 172.133 33.3857 172.128 33.8778ZM189.401 35.6229V29.0455H192.578V40.5H189.528V38.4194H189.409C189.15 39.0906 188.72 39.63 188.119 40.0376C187.522 40.4453 186.794 40.6491 185.934 40.6491C185.168 40.6491 184.494 40.4751 183.913 40.1271C183.331 39.7791 182.876 39.2844 182.548 38.6431C182.225 38.0018 182.061 37.2337 182.056 36.3388V29.0455H185.233V35.772C185.238 36.4482 185.419 36.9826 185.777 37.3754C186.135 37.7681 186.615 37.9645 187.216 37.9645C187.599 37.9645 187.957 37.8775 188.29 37.7035C188.623 37.5245 188.892 37.261 189.096 36.913C189.304 36.565 189.406 36.1349 189.401 35.6229ZM195.179 40.5V25.2273H198.356V30.9695H198.453C198.592 30.6612 198.793 30.348 199.057 30.0298C199.325 29.7067 199.673 29.4382 200.101 29.2244C200.533 29.0057 201.07 28.8963 201.712 28.8963C202.547 28.8963 203.317 29.1151 204.023 29.5526C204.729 29.9851 205.294 30.6388 205.716 31.5138C206.139 32.3839 206.35 33.4751 206.35 34.7876C206.35 36.0653 206.144 37.1442 205.731 38.0241C205.324 38.8991 204.767 39.5629 204.061 40.0153C203.36 40.4627 202.574 40.6864 201.704 40.6864C201.088 40.6864 200.563 40.5845 200.131 40.3807C199.703 40.1768 199.353 39.9208 199.079 39.6126C198.806 39.2994 198.597 38.9837 198.453 38.6655H198.311V40.5H195.179ZM198.289 34.7727C198.289 35.4538 198.383 36.0479 198.572 36.555C198.761 37.0621 199.034 37.4574 199.392 37.7408C199.75 38.0192 200.185 38.1584 200.697 38.1584C201.214 38.1584 201.652 38.0167 202.01 37.7333C202.368 37.445 202.639 37.0472 202.823 36.5401C203.012 36.0281 203.106 35.4389 203.106 34.7727C203.106 34.1115 203.014 33.5298 202.83 33.0277C202.646 32.5256 202.375 32.1328 202.017 31.8494C201.659 31.5661 201.219 31.4244 200.697 31.4244C200.18 31.4244 199.743 31.5611 199.385 31.8345C199.032 32.108 198.761 32.4957 198.572 32.9979C198.383 33.5 198.289 34.0916 198.289 34.7727Z" fill="#4B587C"/>
<path d="M23.1998 36.2404C23.1998 36.352 23.0653 36.4413 22.8958 36.4413C22.7028 36.4581 22.5683 36.3688 22.5683 36.2404C22.5683 36.1287 22.7028 36.0394 22.8724 36.0394C23.0478 36.0226 23.1998 36.1119 23.1998 36.2404ZM21.3815 35.9891C21.3405 36.1008 21.4575 36.2292 21.6329 36.2627C21.7849 36.3185 21.9603 36.2627 21.9954 36.151C22.0304 36.0394 21.9194 35.911 21.744 35.8607C21.5919 35.8216 21.4224 35.8775 21.3815 35.9891ZM23.9657 35.8942C23.7962 35.9333 23.6792 36.0394 23.6968 36.1678C23.7143 36.2794 23.8663 36.352 24.0417 36.3129C24.2113 36.2739 24.3282 36.1678 24.3107 36.0561C24.2931 35.95 24.1353 35.8775 23.9657 35.8942ZM27.8129 14.5C19.7034 14.5 13.5 20.3789 13.5 28.1226C13.5 34.3142 17.581 39.6125 23.4103 41.4773C24.1587 41.6057 24.4218 41.1646 24.4218 40.8017C24.4218 40.4556 24.4042 38.5462 24.4042 37.3737C24.4042 37.3737 20.3115 38.2112 19.452 35.71C19.452 35.71 18.7855 34.0853 17.8266 33.6666C17.8266 33.6666 16.4877 32.79 17.9202 32.8068C17.9202 32.8068 19.376 32.9185 20.177 34.2472C21.4575 36.4023 23.6032 35.7826 24.4393 35.4141C24.5738 34.5208 24.9538 33.9011 25.3748 33.5326C22.1065 33.1864 18.8089 32.7342 18.8089 27.3633C18.8089 25.828 19.2532 25.0575 20.1887 24.0749C20.0367 23.712 19.5397 22.2158 20.3407 20.284C21.5627 19.9211 24.375 21.7915 24.375 21.7915C25.5444 21.4788 26.8014 21.3169 28.0468 21.3169C29.2921 21.3169 30.5492 21.4788 31.7185 21.7915C31.7185 21.7915 34.5308 19.9155 35.7528 20.284C36.5538 22.2213 36.0569 23.712 35.9048 24.0749C36.8403 25.0631 37.4133 25.8336 37.4133 27.3633C37.4133 32.751 33.9696 33.1809 30.7012 33.5326C31.2391 33.9736 31.6952 34.8111 31.6952 36.1231C31.6952 38.0046 31.6776 40.3327 31.6776 40.7905C31.6776 41.1534 31.9466 41.5945 32.6891 41.4661C38.5359 39.6125 42.5 34.3142 42.5 28.1226C42.5 20.3789 35.9224 14.5 27.8129 14.5ZM19.1831 33.7559C19.1071 33.8117 19.1246 33.9401 19.224 34.0462C19.3175 34.1356 19.452 34.1746 19.528 34.1021C19.604 34.0462 19.5865 33.9178 19.4871 33.8117C19.3935 33.7224 19.2591 33.6833 19.1831 33.7559ZM18.5516 33.3037C18.5107 33.3763 18.5692 33.4656 18.6861 33.5214C18.7796 33.5772 18.8966 33.5605 18.9375 33.4823C18.9784 33.4098 18.92 33.3204 18.803 33.2646C18.6861 33.2311 18.5925 33.2478 18.5516 33.3037ZM20.446 35.2912C20.3524 35.3638 20.3875 35.5313 20.522 35.6374C20.6565 35.7658 20.826 35.7826 20.902 35.6932C20.978 35.6206 20.9429 35.4532 20.826 35.3471C20.6974 35.2187 20.522 35.2019 20.446 35.2912ZM19.7794 34.4705C19.6859 34.5264 19.6859 34.6715 19.7794 34.7999C19.873 34.9283 20.0308 34.9842 20.1069 34.9283C20.2004 34.8558 20.2004 34.7106 20.1069 34.5822C20.025 34.4538 19.873 34.398 19.7794 34.4705Z" fill="#4B587C"/>
</svg>
