<svg width="85" height="85" viewBox="0 0 85 85" fill="none" xmlns="http://www.w3.org/2000/svg">
<path fill-rule="evenodd" clip-rule="evenodd" d="M85 42.5C85 65.9721 65.9721 85 42.5 85C19.0279 85 0 65.9721 0 42.5C0 19.0279 19.0279 0 42.5 0C65.9721 0 85 19.0279 85 42.5ZM33.9923 26.8466C33.4464 26.668 32.9357 26.3703 32.513 25.9711C31.7436 25.2469 31.3 24.2692 31.2638 23.2101C31.2276 22.1509 31.6078 21.1461 32.332 20.3766C33.0562 19.6072 34.0339 19.1636 35.093 19.1274C36.1521 19.0912 37.157 19.4714 37.9264 20.1956C38.5048 20.7332 38.8999 21.4175 39.0722 22.1758C40.1796 21.7829 41.3155 21.6316 42.4437 21.7073C42.6078 21.6987 43.9504 21.6653 45.5358 22.1341C45.7182 21.3947 46.1057 20.7283 46.6712 20.1956C47.4407 19.4714 48.4455 19.0912 49.5046 19.1274C50.5638 19.1636 51.5415 19.6072 52.2657 20.3766C52.9899 21.1461 53.3701 22.1509 53.3339 23.2101C53.2977 24.2692 52.8541 25.2469 52.0846 25.9711C51.6836 26.3485 51.2006 26.6372 50.6831 26.8192C51.2359 28.0156 51.6144 29.2892 51.9822 30.5265L52.0032 30.5969C52.0844 30.8768 52.1657 31.1477 52.2469 31.4186L52.2476 31.4207C52.644 32.7211 52.9641 33.8062 53.2443 34.7977C54.0664 33.7702 54.5238 31.9638 54.4745 30.7237C54.4564 30.3073 54.4383 29.8999 54.4202 29.5016L54.4147 29.3803C54.3713 28.4291 54.33 27.5224 54.3387 26.5323C54.3478 24.5861 55.0358 22.7303 56.2126 21.4358C57.5343 19.9874 60.0509 19.0278 61.8342 19.2903C61.9428 19.3084 62.0243 19.408 62.0243 19.5166C62.0243 19.6253 61.9428 19.7248 61.8252 19.7429C60.3405 19.933 58.702 21.0012 58.1589 21.8341C56.8418 23.8819 57.3856 26.1814 58.0165 28.8492L58.0231 28.877C58.7 31.7016 59.454 34.881 58.2769 38.572C59.074 37.5348 59.3918 36.1077 59.6978 34.7158L59.7169 34.6306C59.9642 33.5258 60.2177 32.3931 60.7208 31.4841C61.7709 29.574 63.4818 27.9808 65.4009 27.0936C67.5011 26.125 69.7552 26.0616 71.7377 26.9126C72.4076 27.2022 72.9779 27.6096 73.4305 28.1437C73.6659 28.4153 73.865 28.714 74.028 29.0399C74.0719 29.1276 74.1072 29.2408 74.1505 29.3795L74.1547 29.3929L74.1591 29.4083C74.1959 29.5371 74.2561 29.7481 74.2996 29.8003C74.3901 29.8818 74.3991 30.0176 74.3267 30.1172C74.2453 30.2167 74.1004 30.2258 74.0099 30.1443C72.2627 28.705 69.6466 28.5058 67.4921 29.6555C64.9151 31.025 64.6699 34.0089 64.4534 36.6432L64.4504 36.6802L64.4323 36.8522C64.2241 39.4141 63.9616 42.6006 61.8161 44.9543C61.3578 45.4552 60.8509 45.9064 60.3035 46.3027C60.3236 46.3148 60.3422 46.3301 60.3586 46.3484C61.2458 47.4256 62.6037 48.1317 63.9254 48.8107L63.9283 48.8122C66.0819 49.9252 68.3069 51.0751 68.6055 53.9072C69.0129 56.623 66.5777 59.2211 63.9797 60.1535C63.2193 60.407 62.5041 60.5427 61.8342 60.5427C60.3315 60.5427 59.0822 59.8729 58.3128 58.5874C58.3118 58.5864 58.3109 58.5854 58.3101 58.5844C58.3089 58.5829 58.3079 58.5814 58.307 58.5798C58.3051 58.5764 58.3037 58.5728 58.3021 58.5685C58.3003 58.5637 58.2981 58.5581 58.2947 58.5512C57.8782 57.483 58.3128 56.2881 59.3629 55.6634C59.4443 55.6091 59.553 55.6182 59.6254 55.6906C59.6978 55.7539 59.725 55.8626 59.6888 55.9531C59.4353 56.5596 59.2723 57.3653 59.9513 57.8089C60.8565 58.3973 62.7123 58.0171 63.6266 57.0485C64.4685 56.1523 64.4051 54.9573 63.4546 53.6719C63.2193 53.3822 62.9477 53.1287 62.6399 52.9296C62.486 52.83 62.3321 52.7395 62.1601 52.667C61.0738 52.1691 59.7069 52.142 58.3852 52.1239C57.2397 52.11 56.0676 52.0908 55.0403 51.7682C55.7521 52.7705 56.224 54.0123 56.4027 55.3556C56.7738 58.2525 56.3031 60.4522 54.9181 62.2627C53.5059 64.1094 51.2518 65.3225 48.8981 65.4945C48.7533 65.5216 48.5994 65.5307 48.4546 65.5307C47.2777 65.5307 46.0918 65.1958 45.0689 64.5621C43.8649 63.8198 42.9959 62.7154 42.6338 61.4661C42.2264 60.072 42.4437 58.5059 43.2131 57.2748C43.2765 57.1752 43.3942 57.139 43.5028 57.1843C43.6024 57.2295 43.6567 57.3472 43.6295 57.4558C43.4123 58.18 43.5209 59.031 43.9283 59.7733C44.3628 60.5699 45.078 61.1493 45.8836 61.3756C47.0967 61.7105 48.355 61.3665 49.2331 60.4613C50.0206 59.6465 50.4371 58.515 50.3827 57.3563C50.3284 56.2066 49.8034 55.1293 48.9524 54.4051C48.1997 53.76 47.2608 53.3365 46.3463 52.9241L46.3182 52.9115C45.1685 52.3955 43.9735 51.8523 43.0864 50.8656C42.5008 50.209 42.0544 49.3873 41.7727 48.4174C41.7614 48.3995 41.7525 48.3796 41.7466 48.358C41.6651 48.0774 41.6018 47.7787 41.5475 47.4709C41.5176 47.3091 41.4914 47.1443 41.4689 46.976C41.0368 49.2503 40.5293 50.0772 40.3362 50.3919L40.3344 50.3949C39.5197 51.7075 38.3338 52.7485 37.1841 53.7533L37.1442 53.7885C35.8192 54.9522 34.5696 56.0497 33.8347 57.5554C33.545 58.1438 33.2463 59.0129 33.4454 59.8638C33.6446 60.7419 34.405 61.5476 35.4098 61.9549C36.5414 62.4166 37.8631 62.3442 38.8498 61.7648C39.8908 61.1493 40.5426 59.9724 40.4612 58.8318C40.4521 58.7232 40.5336 58.6146 40.6422 58.5965C40.7508 58.5693 40.8595 58.6327 40.9047 58.7413C41.3212 59.9362 41.2397 61.2851 40.6784 62.5524C40.1353 63.7745 39.1666 64.7974 38.0351 65.3587C37.2203 65.748 36.306 65.9471 35.3736 65.9471C33.7261 65.9471 32.0423 65.3315 30.7568 64.1547C28.9192 62.48 27.9687 59.7733 28.2764 57.0847C28.3851 56.1161 28.6476 55.1655 29.055 54.2693C29.3807 53.5421 29.8269 52.8085 30.4307 51.9943C29.4357 52.1581 28.4438 52.1857 27.4708 52.0877C27.3059 52.0683 27.141 52.0463 26.9776 52.0245L26.9767 52.0244C26.8353 52.0055 26.6949 51.9868 26.5565 51.97C25.8323 51.8614 25.1443 51.7618 24.4472 51.8161C23.8407 51.8614 23.198 52.0334 22.5462 52.3321C21.5685 52.7757 20.8443 53.3731 20.446 54.0792C19.9843 54.903 20.0024 55.9441 20.4913 56.5958C21.1702 57.492 22.5462 57.5645 23.4967 57.1028C24.3748 56.6773 25.1081 55.8807 25.8051 54.5952C25.8504 54.5138 25.9318 54.4685 26.0224 54.4775C26.1129 54.4866 26.1853 54.5409 26.2215 54.6314C26.5836 55.6634 26.3754 56.9217 25.6784 57.9175C25.0809 58.7684 24.1575 59.4474 22.9898 59.8819C22.1298 60.1897 21.2336 60.3526 20.3464 60.3526C19.4231 60.3526 18.5087 60.1806 17.685 59.8276C15.9559 59.0943 14.6343 57.6278 14.1635 55.8988C13.6294 53.9616 14.1907 51.7346 15.6119 50.078C16.6712 48.8422 18.2067 47.9187 19.972 47.4452C19.0142 46.5541 18.3313 45.4305 17.9565 44.0943C17.4224 42.7545 17.5039 41.1884 17.5854 39.6676L17.5866 39.6462C17.7129 37.3275 17.8327 35.1284 15.8292 33.8649C15.1321 33.6386 14.4623 33.6929 13.8376 34.0369C12.4435 34.8064 11.5111 36.8432 11.149 38.364C11.1219 38.4636 11.0313 38.536 10.9227 38.536C10.8141 38.536 10.7236 38.4636 10.7055 38.355C10.2166 36.1461 10.7055 33.5028 11.9638 31.6199C12.9505 30.1443 14.2993 29.221 15.8835 28.9403C16.6322 28.8104 17.3681 28.8998 18.0311 29.1975C18.0191 28.8468 18.0346 28.4865 18.0742 28.1165C18.2281 26.7315 18.7079 25.5366 19.4502 24.6766C20.3374 23.6446 21.6409 23.0833 22.854 23.2282C23.6868 23.3277 24.5287 23.7442 25.2982 24.4503C26.9005 25.9168 27.6609 27.9989 28.3941 30.0085L28.4445 30.1462C28.8994 31.3893 29.3698 32.6751 30.0507 33.7925C30.5007 34.5341 30.9814 35.084 31.5069 35.4633C31.6187 35.0157 31.7295 34.5714 31.8341 34.1455C32.1238 32.9597 32.3772 31.9277 32.5311 31.4298C32.6283 31.1175 32.7201 30.7893 32.8107 30.4655L32.8108 30.4653C32.8383 30.3667 32.8658 30.2686 32.8932 30.1715L32.8985 30.1526C33.2089 29.0451 33.528 27.907 33.9923 26.8466ZM20.8262 35.9651C20.81 34.9855 20.7866 33.9769 20.6005 32.9976C21.4591 33.2167 22.3139 33.0471 22.8992 32.5251C22.9898 32.4437 22.9988 32.2988 22.9173 32.2083C22.8359 32.1178 22.7001 32.1087 22.6005 32.1811C22.2746 32.4437 21.7677 32.3803 21.4418 32.1811C21.1159 31.982 20.8352 31.6289 20.6089 31.1129C20.2649 30.3344 20.1744 29.5468 20.3645 28.886C20.5727 28.1347 21.1702 27.5462 21.8491 27.4376C22.4466 27.338 23.1346 27.6005 23.6596 28.1256C24.1756 28.6506 24.4925 29.3477 24.7369 29.9633C25.1779 31.0974 25.5027 32.2942 25.8178 33.4557L25.8232 33.4756L25.8444 33.554C26.1456 34.6705 26.4578 35.8278 26.8824 36.9247C27.6091 38.8125 28.4487 40.1363 29.52 41.0829C28.4281 42.5612 26.6415 43.9985 24.1123 42.9989C23.0169 42.5644 22.0936 41.6229 21.5142 40.3556C20.8896 38.9796 20.8534 37.5131 20.8262 35.9651ZM49.7384 25.1298C49.9359 25.0451 50.1188 24.9244 50.2741 24.7762C51.0345 24.0701 51.0707 22.8751 50.3646 22.1147C49.6585 21.3543 48.4636 21.3181 47.7032 22.0242C47.4752 22.237 47.3046 22.5073 47.2021 22.8082C47.8761 23.1727 48.4734 23.6289 48.9615 24.1606C49.2384 24.4627 49.4998 24.7882 49.7384 25.1298ZM37.4167 22.9508C37.3319 22.6029 37.1458 22.2879 36.8764 22.0423C36.1159 21.3362 34.921 21.3724 34.2149 22.1328C33.5088 22.8932 33.545 24.0882 34.3054 24.7943C34.4864 24.9607 34.6962 25.0925 34.9258 25.1802C35.1961 24.8037 35.4989 24.453 35.8263 24.1515C36.3144 23.6982 36.8446 23.2953 37.4167 22.9508Z" fill="#2C3C40" />
</svg>
